<svg xmlns="http://www.w3.org/2000/svg" width="480" height="480" viewBox="0 0 480 480">
  <g id="icon2" transform="translate(560 -181.89)">
    <path id="Path_4" data-name="Path 4" d="M-80,440.89c-1.664,10.16-3,20.387-5.053,30.468a234.893,234.893,0,0,1-35.336,84.151c-3.6,5.4-7.862,6.812-12.088,4.123-4.328-2.753-4.7-7.45-.967-13.062,32.237-48.5,43.462-101.759,35.3-159.11-13.146-92.322-85.287-168.856-177.071-185.106-89.908-15.918-165.2,11.383-222.692,83.188-25.654,32.042-39.8,69.4-44.226,110.245-6.186,57.1,6.4,109.7,39.843,156.549,35.776,50.119,84.625,80.262,145.3,90.43,35.224,5.9,70.438,4.893,104.784-5.97,22.2-7.019,39.948-19.766,48.73-42.408a62.129,62.129,0,0,0,3.475-34.341,31.548,31.548,0,0,0-1.18-3.617c-8.56,7.324-17.781,12.41-28.417,14.7-14.842,3.2-28.668,1.166-41.608-7.162-76.945-49.52-140.037-112.8-190.02-189.452-14.046-21.541-10.7-51.433,6.183-69.787,7.1-7.719,14.62-15.074,22.214-22.317,14.148-13.492,41.02-16.21,56.694,1.167,8.248,9.145,17.049,17.852,26.162,26.141,17.394,15.821,14.269,42.119,1.732,55.971-2.453,2.711-5.046,5.3-8.02,8.4a617.244,617.244,0,0,0,85.563,85.39,53.154,53.154,0,0,1,4.081-6.034c13.91-15.469,42.862-20.114,60.263-.136a276.887,276.887,0,0,0,24.713,24.753c17.789,15.844,15.43,42.947,1.27,56.871-6.439,6.332-7.781,11.616-5.634,20.431,7.661,31.449-4.5,61.739-31.08,80.6-18.5,13.132-39.562,19.5-61.682,22.855-8.373,1.269-16.817,2.057-25.229,3.065h-29c-6.581-.813-13.185-1.473-19.74-2.465-60.805-9.211-111.087-37.475-150.677-84.371-29.45-34.886-47.508-75.12-53.694-120.473-1.3-9.517-1.943-19.125-2.889-28.691v-8a40.8,40.8,0,0,0,.717-4.842c.764-23.97,4.723-47.43,13.352-69.784,34.063-88.25,97.51-141.421,190.8-158.479,6.987-1.278,14.087-1.945,21.135-2.9h28c3.443.415,6.883.858,10.331,1.239,39.6,4.381,76.235,17.2,109.058,39.834,55.171,38.042,89.9,89.815,102.725,155.864,1.61,8.293,2.606,16.706,3.886,25.063Zm-375.28-95.332c-.18,6.269,2.965,13.293,7.282,20.006A608.1,608.1,0,0,0-262.807,550.532c15.561,9.982,32.026,9.72,46.236-2.2a255.218,255.218,0,0,0,26.944-26.689c8.745-9.9,7.639-21.217-1.779-30.725q-14.067-14.2-28.261-28.278c-10.386-10.333-22.212-10.585-33.069-.6-4.044,3.716-7.8,7.752-11.73,11.589-4.6,4.487-8.126,4.7-13.136.651a632.914,632.914,0,0,1-94.5-94.542c-4.128-5.111-3.839-8.3.755-13.074,4.617-4.8,9.65-9.275,13.708-14.507,7.712-9.942,6.708-20.708-2.146-29.628q-14.084-14.187-28.262-28.279c-10.836-10.755-22.215-11.176-33.407-.78-7.8,7.249-15.3,14.86-22.572,22.647C-451.188,323.783-455.244,332.95-455.28,345.558Z" fill="#07f" fill-rule="evenodd"/>
  </g>
</svg>
