<svg xmlns="http://www.w3.org/2000/svg" width="512" height="512" viewBox="0 0 512 512">
  <g id="icon1" transform="translate(-39 -165.89)">
    <path id="Path_1" data-name="Path 1" d="M311,677.89H279a26.524,26.524,0,0,0-3.822-.833c-20.678-1.477-41-5.132-60.437-12.254C120.541,630.29,62.885,564.031,42.894,465.488,41.05,456.4,40.273,447.094,39,437.89v-32a36.145,36.145,0,0,0,.859-4.362c2.026-26.755,7.811-52.706,18.683-77.2C96.218,239.435,160.529,187.5,251.917,169.677c8.934-1.743,18.051-2.547,27.083-3.787h32c1.113.272,2.212.633,3.34.8,11.833,1.744,23.792,2.866,35.487,5.272,99.2,20.414,180.9,105.768,197.255,205.84,1.523,9.327,2.622,18.724,3.918,28.088v32a35.007,35.007,0,0,0-.868,4.347c-1.872,24.889-6.969,49.143-16.635,72.117-36.885,87.673-101.854,141.324-195.433,159.729C329.139,675.839,320.026,676.644,311,677.89Zm-15.882-492.2C165.981,185.09,59.764,290.8,58.805,420.87c-.958,129.871,105.18,236.645,235.8,237.21,129.538.559,235.636-105.031,236.584-235.45C532.127,292.9,425.918,186.293,295.118,185.688Z" fill="#07f" fill-rule="evenodd"/>
    <path id="Path_2" data-name="Path 2" d="M247.613,326.243l-17.6-18.593a77.393,77.393,0,0,1,41.849-21.281c22.661-3.833,43.922-.423,62.557,13.671,22.226,16.811,30.746,39.475,28.287,67.054-2.074,23.253-13.708,40.493-31.443,54.5-9.518,7.516-19.243,14.825-28.226,22.944-8.761,7.917-11.74,18.706-11.978,30.265-.119,5.8-.021,11.605-.021,17.724h-26.9c.443-9,.5-18.068,1.41-27.046,2.025-20.005,13.9-34.105,28.821-46.121,6.736-5.426,13.647-10.654,20.668-15.706,17.113-12.313,23.121-33.218,18.414-57.338-5.721-29.311-34.309-42.476-60.17-36.105-6.643,1.637-12.517,6.566-18.6,10.228C252.3,321.878,250.313,323.993,247.613,326.243Z" fill="#07f" fill-rule="evenodd"/>
    <path id="Path_3" data-name="Path 3" d="M295.992,539.752c1.409,9.91-10.434,20.252-18.3,20.108-10.253-.19-19.077-9.685-19.064-21.082.011-10.221,9.077-19.371,18.881-19.446C285.458,519.272,297.691,529.476,295.992,539.752Z" fill="#07f" fill-rule="evenodd"/>
  </g>
</svg>
