<svg xmlns="http://www.w3.org/2000/svg" width="511.395" height="511.289" viewBox="0 0 511.395 511.289">
  <g id="icon3" transform="translate(582.395 -165.89)">
    <path id="Path_5" data-name="Path 5" d="M-71,434.89c-1.015,7.9-1.976,15.808-3.052,23.7C-88.443,564.123-169.773,650.975-274.138,671.7c-65.722,13.049-127.73,2.885-185.632-31.264a9.484,9.484,0,0,0-6.435-.81c-28.759,7-57.465,14.213-86.2,21.312-9.939,2.455-16.31-4.207-13.553-14.114,7.532-27.072,15.046-54.148,22.742-81.172a10.43,10.43,0,0,0-1.216-9.251c-29.13-47.513-41.3-99.315-37.183-154.675,7.822-105.1,79.92-194.176,180.964-224.567a246.4,246.4,0,0,1,56.316-10.367,29.756,29.756,0,0,0,4.335-.9h26c1.778.327,3.545.76,5.338.964,7.276.831,14.622,1.223,21.831,2.438,49.865,8.413,93.87,29.32,131.351,63.259,44.941,40.694,72.471,91.013,81.492,151.174,1.153,7.7,2,15.442,2.988,23.165ZM-541.325,636.379c2.284-.452,3.718-.674,5.12-1.023,21.62-5.4,43.321-10.5,64.81-16.378,8.684-2.375,15.4-1.1,23.29,3.619,57.875,34.651,119.71,43.962,184.861,25.614,109.219-30.757,189.051-139.442,168.4-263.665-9.194-55.325-34.075-102.732-76.727-139.283-65.577-56.192-141.26-71.685-223.756-48.022-99.463,28.528-162.09,119.4-166.628,213.929-2.413,50.265,10.765,96.551,38.2,138.7,3.407,5.233,4.009,10.018,2.282,15.948C-528.2,588.948-534.555,612.194-541.325,636.379Z" fill="#07f" fill-rule="evenodd"/>
    <path id="Path_6" data-name="Path 6" d="M-220.2,442.908c-10.239.085-21.142-10.549-21.285-20.759-.145-10.4,10.733-21.287,21.256-21.278,10.191.01,21.055,10.83,21.076,20.99C-199.126,431.95-210,442.824-220.2,442.908Z" fill="#07f" fill-rule="evenodd"/>
    <path id="Path_7" data-name="Path 7" d="M-433.591,442.88c-10.247.038-21.042-10.518-21.246-20.777-.2-10.046,10.629-21.1,20.787-21.22,10.615-.125,21.446,10.5,21.429,21.012C-412.638,432.175-423.3,442.841-433.591,442.88Z" fill="#07f" fill-rule="evenodd"/>
    <path id="Path_8" data-name="Path 8" d="M-306.009,421.831c.029,10.375-10.452,20.972-20.818,21.05s-21.042-10.351-21.176-20.7c-.137-10.609,10.466-21.329,21.065-21.3C-316.58,400.918-306.037,411.469-306.009,421.831Z" fill="#07f" fill-rule="evenodd"/>
  </g>
</svg>
